<svg width="29px" height="24px" viewBox="0 0 29 24" version="1.1" xmlns="http://www.w3.org/2000/svg" xmlns:xlink="http://www.w3.org/1999/xlink">
    <g transform="translate(-334.000000, -597.000000)" opacity="0.100000001">
        <g transform="translate(310.000000, 263.000000)" fill="#1B9AD1">
            <g transform="translate(0.000000, 108.000000)">
                <path d="M7.19611021,12.4862237 L11.5137763,12.4862237 L11.5137763,24 L0,24 L0,15.286872 C0,5.76980655 3.83788707,0.674233517 11.5137763,0 L11.5137763,4.31766613 C8.63531786,5.12155994 7.19611021,7.42947851 7.19611021,11.2414911 L7.19611021,12.4862237 Z M24.4667747,12.4862237 L28.7844408,12.4862237 L28.7844408,24 L17.2706645,24 L17.2706645,15.286872 C17.2706645,5.76980655 21.1085516,0.674233517 28.7844408,0 L28.7844408,4.31766613 C25.9059824,5.12155994 24.4667747,7.42947851 24.4667747,11.2414911 L24.4667747,12.4862237 Z" transform="translate(24.000000, 226.000000)"></path>
            </g>
        </g>
    </g>
</svg>
